{"title":"Lewis S01","uid":10352787,"size":2227577563,"categoryP":"video","categoryS":"tv_shows","magnet":"?xt=urn:btih:ed98f83d9455cd6ad85f86e10e5121c7ff40a265&amp;dn=Lewis+S01&amp;tr=udp%3A%2F%2Ftracker.openbittorrent.com%3A80&amp;tr=udp%3A%2F%2Fopen.demonii.com%3A1337&amp;tr=udp%3A%2F%2Ftracker.coppersurfer.tk%3A6969&amp;tr=udp%3A%2F%2Fexodus.desync.com%3A6969","seeders":4,"leechers":4,"uploader":"RedBaron58","files":3,"time":1402695170,"description":"Lewis Season 1 DVDrip x264 mp4\n\naka: Inspector Lewis\n &lt;a href=&quot;\nhttp://www.imdb.com/title/tt0874608/&quot; rel=&quot;nofollow&quot; target=&quot;_NEW&quot;&gt;\nhttp://www.imdb.com/title/tt0874608/&lt;/a&gt;\n\n\nAbout the Series:\n\nLewis is as a spin-off from Inspector Morse. Like that series, it was set primarily in Oxford. Kevin Whately\nreprised his character Robbie Lewis, who had been Morse's sergeant in the original series. \nLewis had now been promoted to detective inspector and was assisted by DS James Hathaway, portrayed \nby Laurence Fox.\n\n\nThank you for your kind comments and thumbs ups on my other torrents, your feedback is welcome.\n\n\n\nConsists of 3 x 90 min Episodes.\n\n\nI hope you enjoy.\n\n\nTechnical: (All episodes encoded to the same settings)\n\nGeneral\nComplete name                            : G:Lewis S01Lewis S01E01 Whom the Gods Would Destroy x264 RB58.mp4\nFormat                                   : MPEG-4\nFormat profile                           : Base Media / Version 2\nCodec ID                                 : mp42\nFile size                                : 709 MiB\nDuration                                 : 1h 33mn\nOverall bit rate mode                    : Variable\nOverall bit rate                         : 1 064 Kbps\nEncoded date                             : UTC 2014-06-12 20:51:07\nTagged date                              : UTC 2014-06-12 21:13:13\nWriting application                      : HandBrake 0.9.8 2012071700\n\nVideo\nID                                       : 1\nFormat                                   : AVC\nFormat/Info                              : Advanced Video Codec\nFormat profile                           : &lt;a class=&quot;__cf_email__&quot; href=&quot;/cdn-cgi/l/email-protection&quot; data-cfemail=&quot;5b163a32351b1768756b&quot;&gt;[email&amp;#160;protected]&lt;/a&gt;&lt;script cf-hash='f9e31' type=&quot;text/javascript&quot;&gt;\n/* &lt;![CDATA[ */!function(){try{var t=&quot;currentScript&quot;in document?document.currentScript:function(){for(var t=document.getElementsByTagName(&quot;script&quot;),e=t.length;e--;)if(t[e].getAttribute(&quot;cf-hash&quot;))return t[e]}();if(t&amp;&amp;t.previousSibling){var e,r,n,i,c=t.previousSibling,a=c.getAttribute(&quot;data-cfemail&quot;);if(a){for(e=&quot;&quot;,r=parseInt(a.substr(0,2),16),n=2;a.length-n;n+=2)i=parseInt(a.substr(n,2),16)^r,e+=String.fromCharCode(i);e=document.createTextNode(e),c.parentNode.replaceChild(e,c)}}}catch(u){}}();/* ]]&gt; */&lt;/script&gt;\nFormat settings, CABAC                   : Yes\nFormat settings, ReFrames                : 4 frames\nCodec ID                                 : avc1\nCodec ID/Info                            : Advanced Video Coding\nDuration                                 : 1h 33mn\nBit rate mode                            : Variable\nBit rate                                 : 900 Kbps\nWidth                                    : 716 pixels\nHeight                                   : 576 pixels\nDisplay aspect ratio                     : 16:9\nFrame rate mode                          : Variable\nFrame rate                               : 25.000 fps\nMinimum frame rate                       : 8.333 fps\nMaximum frame rate                       : 25.000 fps\nColor space                              : YUV\nChroma subsampling                       : 4:2:0\nBit depth                                : 8 bits\nScan type                                : Progressive\nBits/(Pixel*Frame)                       : 0.087\nStream size                              : 599 MiB (85%)\nWriting library                          : x264 core 120\nEncoding settings                        : cabac=1 / ref=1 / deblock=1:0:0\nEncoded date                             : UTC 2014-06-12 20:51:07\nTagged date                              : UTC 2014-06-12 21:13:13\nColor primaries                          : BT.601 NTSC\nTransfer characteristics                 : BT.709\nMatrix coefficients                      : BT.601\n\nAudio\nID                                       : 2\nFormat                                   : AAC\nFormat/Info                              : Advanced Audio Codec\nFormat profile                           : LC\nCodec ID                                 : 40\nDuration                                 : 1h 33mn\nBit rate mode                            : Variable\nBit rate                                 : 160 Kbps\nMaximum bit rate                         : 198 Kbps\nChannel(s)                               : 2 channels\nChannel positions                        : Front: L R\nSampling rate                            : 48.0 KHz\nCompression mode                         : Lossy\nDelay relative to video                  : 160ms\nStream size                              : 106 MiB (15%)\nLanguage                                 : English\nEncoded date                             : UTC 2014-06-12 20:51:07\nTagged date                              : UTC 2014-06-12 21:13:13","torrent":{"xt":"urn:btih:ed98f83d9455cd6ad85f86e10e5121c7ff40a265","amp;dn":"Lewis+S01","amp;tr":["udp%3A%2F%2Ftracker.openbittorrent.com%3A80","udp%3A%2F%2Fopen.demonii.com%3A1337","udp%3A%2F%2Ftracker.coppersurfer.tk%3A6969","udp%3A%2F%2Fexodus.desync.com%3A6969"],"infoHash":"ed98f83d9455cd6ad85f86e10e5121c7ff40a265","infoHashBuffer":{"type":"Buffer","data":[237,152,248,61,148,85,205,106,216,95,134,225,14,81,33,199,255,64,162,101]},"announce":[],"urlList":[]}}